<?xml version="1.0" encoding="utf-8"?>
<!-- Generator: Adobe Illustrator 23.0.5, SVG Export Plug-In . SVG Version: 6.00 Build 0)  -->
<svg version="1.1"
	 id="svg2" inkscape:export-filename="/home/byron/art/cards/final/PNGs/black_joker.png" inkscape:export-xdpi="215.44792" inkscape:export-ydpi="215.44792" inkscape:version="0.48.0 r9654" sodipodi:docname="black_joker.svg" xmlns:cc="http://creativecommons.org/ns#" xmlns:dc="http://purl.org/dc/elements/1.1/" xmlns:inkscape="http://www.inkscape.org/namespaces/inkscape" xmlns:rdf="http://www.w3.org/1999/02/22-rdf-syntax-ns#" xmlns:sodipodi="http://sodipodi.sourceforge.net/DTD/sodipodi-0.dtd" xmlns:svg="http://www.w3.org/2000/svg"
	 xmlns="http://www.w3.org/2000/svg" xmlns:xlink="http://www.w3.org/1999/xlink" x="0px" y="0px" viewBox="0 0 167.1 242.7"
	 style="enable-background:new 0 0 167.1 242.7;" xml:space="preserve">
<style type="text/css">
	.st0{fill:#FFFFFF;stroke:#000000;stroke-width:0.5;}
	.st1{font-family:'Arial-BoldItalicMT';}
	.st2{font-size:32px;}
	.st3{font-size:38.4px;}
	.st4{fill:#DF0000;}
</style>
<sodipodi:namedview  bordercolor="#666666" borderopacity="1" gridtolerance="10" guidetolerance="10" id="namedview39" inkscape:current-layer="svg2" inkscape:cx="117.85966" inkscape:cy="152.384" inkscape:pageopacity="0" inkscape:pageshadow="2" inkscape:window-height="977" inkscape:window-maximized="1" inkscape:window-width="1680" inkscape:window-x="0" inkscape:window-y="25" inkscape:zoom="2.4336873" objecttolerance="10" pagecolor="#ffffff" showgrid="false">
	</sodipodi:namedview>
<g id="Layer_x0020_1">
	<path id="path5" class="st0" d="M166.8,235.5c0,3.8-3.1,6.9-6.9,6.9H7.1c-3.8,0-6.9-3.1-6.9-6.9V7.1c0-3.8,3.1-6.9,6.9-6.9H160
		c3.8,0,6.9,3.1,6.9,6.9V235.5z"/>
	<g id="g7">
		<g id="g9">
		</g>
	</g>
	<g id="g15">
	</g>
	<g id="g19">
	</g>
	<g id="g23">
		<g id="g25">
		</g>
	</g>
	<g id="g31">
		<g id="g33">
		</g>
	</g>
</g>
<text transform="matrix(1 0 0 1 3.9446 27.3558)" class="st1 st2">J</text>
<g id="layer1-7-88" transform="matrix(2.2711763,2.2711763,-2.0765626,2.0765626,117.0668,94.436511)">
	<path id="sl-4" inkscape:connector-curvature="0" sodipodi:nodetypes="cccccccccc" d="M8,3.1C7.7-1,0.2-8.6,0-10.5
		C-0.2-8.6-7.7-1-8,3.1C-8.2,6-6.3,7.2-4.6,7.2c1.8,0,3.4-2.8,3.9-3.3c0.2,0.7-1.6,6.7-2.2,6.7h5.8c-0.6,0-2.4-6-2.2-6.7
		c0.5,0.5,1.8,3.3,3.9,3.3C6.3,7.2,8.2,6,8,3.1z"/>
</g>
<text transform="matrix(1 0 0 1 4.2733 49.0513)" class="st1 st3">o</text>
<text transform="matrix(1 0 0 1 2.6298 76.9924)" class="st1 st3">k</text>
<text transform="matrix(1 0 0 1 2.6298 99.3454)" class="st1 st3">e</text>
<text transform="matrix(1 0 0 1 2.301 120.3834)" class="st1 st3">r</text>
<g id="layer1-9" transform="matrix(2.374378,-2.374378,2.2221918,2.2221918,59.383523,95.635421)">
	<path id="hl" inkscape:connector-curvature="0" sodipodi:nodetypes="scsscss" class="st4" d="M3.7-9C0.4-9,0-5.5,0-5.5
		S-0.4-9-3.7-9C-5.9-9-8-7.4-8-4.5C-8-0.6-1.4,3.3,0,9C1.4,3.3,8-0.6,8-4.5C8-7.4,5.9-9,3.7-9z"/>
</g>
<g id="layer1-1" transform="matrix(-2.145754,-2.145754,2.145754,-2.145754,110.19878,305.77847)">
	<path id="cl" inkscape:connector-curvature="0" d="M50.3,22.7c0,0,2.4-1.9,2.4-4.5c0-1.5-1.4-4.1-4.5-4.1s-4.5,2.6-4.5,4.1
		c0,2.6,2.4,4.5,2.4,4.5c-2.6-2.1-7.3-0.7-7.3,3.5c0,2.1,1.7,4.3,4.3,4.3c3.2,0,4.5-3.5,4.5-3.5s0.4,3.9-1.9,6h5.2
		c-2.3-2.1-1.9-6-1.9-6s1.4,3.5,4.5,3.5c2.6,0,4.3-2.3,4.3-4.3C57.6,22,52.9,20.6,50.3,22.7z"/>
</g>
<g id="layer1-2" transform="matrix(2.235014,-2.235014,2.235014,2.235014,117.78936,156.16707)">
	<path id="dl" inkscape:connector-curvature="0" sodipodi:nodetypes="ccccccccc" class="st4" d="M3.2-4.7C1.1-7.6,0-10.5,0-10.5
		s-1.1,2.9-3.2,5.8C-5.4-1.9-8,0-8,0s2.6,1.9,4.8,4.7C-1.1,7.6,0,10.5,0,10.5s1.1-2.9,3.2-5.8C5.4,1.9,8,0,8,0S5.4-1.9,3.2-4.7z"/>
</g>
<text transform="matrix(-1 0 0 -1 163.7158 215.002)" class="st1 st2">J</text>
<text transform="matrix(-1 0 0 -1 163.3877 193.3066)" class="st1 st3">o</text>
<text transform="matrix(-1 0 0 -1 165.0312 165.3652)" class="st1 st3">k</text>
<text transform="matrix(-1 0 0 -1 165.0312 143.0117)" class="st1 st3">e</text>
<text transform="matrix(-1 0 0 -1 165.3594 121.9746)" class="st1 st3">r</text>
</svg>
